PathFileType  4	(X/Y/Z) C:\Users\antoi\Documents\MyRepositories\mobilecap\ResultsAnalysis
DataRate	CameraRate	NumFrames	NumMarkers	Units	OrigDataRate	OrigDataStartFrame	OrigNumFrames
100.0	100.0	4	51	mm	100.0	1	170
Frame#	Time	r_knee			r_shank_antsup			r_ankle			r_calc			r_5meta			r_toe			L_knee			L_shank_antsup			L_ankle			L_calc			L_5meta			L_toe			r_sh2			r_sh3			r_sh4			L_sh2			L_sh3			r_thigh1			r_thigh2			r_thigh3			r_thigh4			r_thigh5			L_thigh1			L_thigh2			L_thigh3			L_thigh4			r.ASIS			r.PSIS			L.ASIS			L.PSIS			C7			R_Shoulder			L_Shoulder			R_Sternum			L_Sternum			R_humerus			R_elbow_med			R_elbow_lat			R_forearm			R_wrist_radius			R_wrist_ulna			L_humerus			L_elbow_med			L_elbow_lat			L_forearm			L_wrist_radius			L_wrist_ulna			R_HJC			L_HJC			R_HJC_reg			L_HJC_reg			
		X1	Y1	Z1	X2	Y2	Z2	X3	Y3	Z3	X4	Y4	Z4	X5	Y5	Z5	X6	Y6	Z6	X7	Y7	Z7	X8	Y8	Z8	X9	Y9	Z9	X10	Y10	Z10	X11	Y11	Z11	X12	Y12	Z12	X13	Y13	Z13	X14	Y14	Z14	X15	Y15	Z15	X16	Y16	Z16	X17	Y17	Z17	X18	Y18	Z18	X19	Y19	Z19	X20	Y20	Z20	X21	Y21	Z21	X22	Y22	Z22	X23	Y23	Z23	X24	Y24	Z24	X25	Y25	Z25	X26	Y26	Z26	X27	Y27	Z27	X28	Y28	Z28	X29	Y29	Z29	X30	Y30	Z30	X31	Y31	Z31	X32	Y32	Z32	X33	Y33	Z33	X34	Y34	Z34	X35	Y35	Z35	X36	Y36	Z36	X37	Y37	Z37	X38	Y38	Z38	X39	Y39	Z39	X40	Y40	Z40	X41	Y41	Z41	X42	Y42	Z42	X43	Y43	Z43	X44	Y44	Z44	X45	Y45	Z45	X46	Y46	Z46	X47	Y47	Z47	X48	Y48	Z48	X49	Y49	Z49	X50	Y50	Z50	X51	Y51	Z51	

1	0.00000000	10.14582	447.72682	-101.04319	87.59034	360.23829	-119.37373	126.29078	83.31076	-156.16565	100.56889	44.80658	-215.79356	249.35881	73.35218	-123.05123	279.99027	112.21625	-156.73352	-287.85123	450.43544	-382.33948	-298.89402	340.88907	-332.80705	-517.70327	127.83376	-321.46110	-573.09837	113.90211	-268.08098	-430.15538	35.36208	-332.43932	-383.12111	42.95708	-282.89831	120.04750	253.88016	-139.76027	31.65606	332.35891	-75.18889	48.09737	224.84508	-106.31116	-338.95120	379.34986	-399.71135	-408.75326	280.37603	-398.97936	-13.36650	759.80574	-100.50033	30.85839	657.86831	-104.58495	-4.98523	618.88079	-63.44654	-109.46576	718.48176	-50.99627	-59.94261	611.62854	-57.57716	-113.69477	703.00408	-418.16727	-150.07476	571.60608	-403.77418	-217.76404	732.51187	-446.54142	-256.59596	599.51513	-423.29018	-31.89108	889.40606	-136.48467	-215.56638	937.08687	-195.10247	-36.30002	880.05649	-384.05909	-221.20236	943.50112	-310.88960	-170.19197	1381.37487	-197.21961	-140.03911	1315.72269	-48.29661	-80.92229	1379.66820	-345.37853	-49.47279	1316.27483	-170.39139	-41.58455	1322.21267	-213.84858	-156.46843	1182.11802	1.54433	-256.95457	1012.89871	-86.34194	-257.20197	1013.57743	-10.54077	-236.32547	887.70328	13.22271	-219.81448	784.83345	15.15541	-257.37280	782.65264	19.70256	-41.67316	1241.66650	-421.16304	-116.63298	1046.79323	-424.89112	-76.79432	1066.24654	-483.96708	-8.37861	987.96167	-488.92633	43.22752	868.26109	-470.73937	25.80090	859.63653	-497.24766	-126.08120	821.14883	-156.86343	-129.25065	814.36396	-346.09213	-104.53610	810.34019	-171.65211	-112.47534	819.37568	-334.75064	
2	0.01000000	19.21090	449.17061	-101.04306	94.71049	359.71284	-118.58191	130.01491	82.41586	-156.28468	102.65284	46.27690	-216.05486	252.13574	68.59307	-122.82151	284.45135	106.11245	-156.38122	-276.17811	449.40695	-382.28552	-289.59449	340.09595	-333.48455	-513.33465	131.93012	-322.77368	-568.82546	119.98475	-269.59349	-428.76727	35.74243	-332.69806	-382.55458	42.38093	-283.13675	125.96874	253.11911	-139.10882	38.21734	332.63027	-74.97740	53.27144	225.00850	-106.29198	-329.05218	379.79805	-399.93550	-401.05267	282.46937	-399.60739	-2.58635	761.51432	-100.31615	41.09213	659.16771	-104.28421	4.94901	620.31304	-62.92705	-99.07771	720.69397	-51.11288	-50.07632	613.72104	-57.22506	-102.18444	701.53850	-418.05519	-138.30588	570.13405	-403.54880	-205.76183	730.75079	-447.23215	-244.71488	597.92831	-423.24694	-20.79124	890.96077	-137.02316	-204.57445	938.39952	-197.78242	-23.72716	878.47540	-384.55102	-208.80368	942.80758	-313.58397	-157.60305	1380.46100	-192.82152	-127.82925	1312.46992	-44.64488	-67.06002	1380.30634	-340.57517	-37.01986	1314.48727	-166.37334	-28.63808	1321.18142	-209.56518	-143.80096	1178.06813	3.49768	-244.10113	1009.67986	-85.87423	-244.99613	1010.00321	-10.07457	-224.68059	883.93572	13.16043	-209.47456	781.65615	15.58617	-246.68884	779.43134	19.36534	-28.87446	1242.37247	-417.42681	-106.67415	1048.68238	-423.56895	-65.37358	1068.02667	-481.84960	1.13599	988.63370	-486.82997	50.42393	867.94609	-469.10908	33.58751	859.93599	-496.10976	-115.16576	822.67763	-157.25559	-116.95196	813.32491	-346.35187	-94.05746	812.09211	-171.74456	-100.01635	818.30186	-335.06991	
3	0.02000000	28.18278	450.59959	-100.98724	101.78990	359.32619	-117.88821	133.47255	81.65479	-156.28056	104.66682	47.67949	-216.27493	254.77628	63.95646	-122.59140	288.69771	100.14485	-156.03797	-264.27849	448.38297	-382.25695	-280.07678	339.33461	-334.17589	-508.70021	136.15138	-324.13340	-564.28682	126.27341	-271.15575	-427.29906	36.19619	-332.98855	-381.84238	41.91751	-283.35770	131.81866	252.47037	-138.50009	44.84936	333.03386	-74.67914	58.48740	225.29124	-106.11047	-318.89503	380.27950	-400.19579	-393.06967	284.60559	-400.27698	8.14069	763.28418	-100.18405	51.29187	660.56548	-104.03714	14.89340	621.74767	-62.42405	-88.68618	722.95238	-51.20446	-40.17994	615.84631	-56.88058	-90.52475	700.19788	-417.85885	-126.36732	568.75630	-403.28611	-193.72637	729.06703	-447.82100	-232.66643	596.35336	-423.20123	-9.78616	892.59984	-137.47446	-193.56537	939.74709	-200.42859	-11.19851	877.05918	-384.87762	-196.39894	942.24133	-316.24236	-145.03692	1379.63650	-188.48012	-115.71738	1309.34016	-41.06351	-53.22595	1381.04563	-335.80281	-24.62871	1312.80218	-162.38751	-15.76953	1320.23365	-205.33063	-131.18283	1174.17705	5.40667	-231.20476	1006.53907	-85.38496	-232.72025	1006.51734	-9.59279	-212.90115	880.27804	13.12719	-198.77245	778.48053	15.92695	-235.71205	776.21810	19.01045	-16.12933	1243.23087	-413.77087	-96.73577	1050.72532	-422.22285	-54.13085	1069.93372	-479.77608	10.62998	989.46761	-484.77283	57.61597	867.79637	-467.52314	41.34317	860.39637	-494.99539	-104.31735	824.28014	-157.60623	-104.65220	812.42244	-346.55884	-83.59371	813.88826	-171.79831	-87.58753	817.40239	-335.28216	
4	0.03000000	36.94057	451.99735	-100.83368	108.77808	359.16786	-117.36113	136.48281	81.12781	-156.08934	106.54279	48.96181	-216.42866	257.18376	59.57062	-122.37970	292.56029	94.44800	-155.75392	-251.97336	447.37151	-382.27482	-270.15432	338.62592	-334.88577	-503.58076	140.60197	-325.57696	-559.26023	132.94074	-272.81181	-425.68412	36.79782	-333.33562	-380.87124	41.65662	-283.56156	137.52643	252.00824	-137.97120	51.56832	333.65458	-74.25010	63.74756	225.77147	-105.67879	-308.26508	380.80720	-400.51896	-384.57017	286.81167	-401.01873	18.77985	765.12240	-100.13270	61.41601	662.08371	-103.86990	24.81275	623.17114	-61.95265	-78.30237	725.28198	-51.25434	-30.28264	618.01112	-56.55058	-78.61284	699.07995	-417.51624	-114.12875	567.54995	-402.96633	-181.63490	727.52551	-448.23018	-220.32551	594.80702	-423.15150	1.06829	894.37445	-137.76754	-182.52632	941.16554	-202.99392	1.24211	875.94554	-384.91837	-183.99037	941.91555	-318.81849	-132.52052	1378.98298	-184.24249	-103.78937	1306.44261	-37.61403	-39.45216	1381.97284	-331.08982	-12.35144	1311.31113	-158.46160	-3.04313	1319.44495	-201.18468	-118.66762	1170.58714	7.23681	-218.24179	1003.55073	-84.86570	-220.32790	1003.20315	-9.08880	-200.87792	876.82989	13.14251	-187.44960	775.34138	16.12921	-224.22659	773.04766	18.63635	-3.48740	1244.36905	-410.26872	-86.83198	1053.04714	-420.83775	-43.19903	1072.07934	-477.78410	20.07800	990.59319	-482.79437	64.80485	867.95453	-466.01987	49.04465	861.15274	-493.92773	-93.58318	826.00909	-157.88199	-92.36423	811.77462	-346.67239	-73.15620	815.76032	-171.78104	-75.22163	816.81826	-335.30860	
